<mxfile host="app.diagrams.net" modified="2023-09-09T01:42:53.811Z" agent="Mozilla/5.0 (Windows NT 10.0; Win64; x64) AppleWebKit/537.36 (KHTML, like Gecko) Chrome/116.0.0.0 Safari/537.36" etag="b60JZIDr73Ds6EaIFiml" version="21.7.2" type="google">
  <diagram id="C5RBs43oDa-KdzZeNtuy" name="Page-1">
    <mxGraphModel grid="1" page="1" gridSize="10" guides="1" tooltips="1" connect="1" arrows="1" fold="1" pageScale="1" pageWidth="827" pageHeight="1169" math="0" shadow="0">
      <root>
        <mxCell id="WIyWlLk6GJQsqaUBKTNV-0" />
        <mxCell id="WIyWlLk6GJQsqaUBKTNV-1" parent="WIyWlLk6GJQsqaUBKTNV-0" />
        <mxCell id="zkfFHV4jXpPFQw0GAbJ--0" value="Empresa" style="swimlane;fontStyle=0;align=center;verticalAlign=top;childLayout=stackLayout;horizontal=1;startSize=26;horizontalStack=0;resizeParent=1;resizeLast=0;collapsible=1;marginBottom=0;rounded=0;shadow=0;strokeWidth=1;" vertex="1" parent="WIyWlLk6GJQsqaUBKTNV-1">
          <mxGeometry x="260" y="40" width="270" height="266" as="geometry">
            <mxRectangle x="230" y="140" width="160" height="26" as="alternateBounds" />
          </mxGeometry>
        </mxCell>
        <mxCell id="zkfFHV4jXpPFQw0GAbJ--1" value="+ nombre : String&#xa;+ cuit : Int   " style="text;align=left;verticalAlign=top;spacingLeft=4;spacingRight=4;overflow=hidden;rotatable=0;points=[[0,0.5],[1,0.5]];portConstraint=eastwest;" vertex="1" parent="zkfFHV4jXpPFQw0GAbJ--0">
          <mxGeometry y="26" width="270" height="64" as="geometry" />
        </mxCell>
        <mxCell id="zkfFHV4jXpPFQw0GAbJ--4" value="" style="line;html=1;strokeWidth=1;align=left;verticalAlign=middle;spacingTop=-1;spacingLeft=3;spacingRight=3;rotatable=0;labelPosition=right;points=[];portConstraint=eastwest;" vertex="1" parent="zkfFHV4jXpPFQw0GAbJ--0">
          <mxGeometry y="90" width="270" height="8" as="geometry" />
        </mxCell>
        <mxCell id="kqf3sXOYV44oBNvx0RqA-14" value="&lt;u&gt;+ new (String, int)&lt;/u&gt;" style="text;strokeColor=none;fillColor=none;align=left;verticalAlign=top;spacingLeft=4;spacingRight=4;overflow=hidden;rotatable=0;points=[[0,0.5],[1,0.5]];portConstraint=eastwest;whiteSpace=wrap;html=1;" vertex="1" parent="zkfFHV4jXpPFQw0GAbJ--0">
          <mxGeometry y="98" width="270" height="26" as="geometry" />
        </mxCell>
        <mxCell id="zkfFHV4jXpPFQw0GAbJ--5" value="+ montoNetoSueldos(): Int&#xa;" style="text;align=left;verticalAlign=top;spacingLeft=4;spacingRight=4;overflow=hidden;rotatable=0;points=[[0,0.5],[1,0.5]];portConstraint=eastwest;" vertex="1" parent="zkfFHV4jXpPFQw0GAbJ--0">
          <mxGeometry y="124" width="270" height="32" as="geometry" />
        </mxCell>
        <mxCell id="y01pH325L1v8heinwYg4-2" value="+ montoRetenciones(): Int&amp;nbsp;" style="text;strokeColor=none;fillColor=none;align=left;verticalAlign=top;spacingLeft=4;spacingRight=4;overflow=hidden;rotatable=0;points=[[0,0.5],[1,0.5]];portConstraint=eastwest;whiteSpace=wrap;html=1;" vertex="1" parent="zkfFHV4jXpPFQw0GAbJ--0">
          <mxGeometry y="156" width="270" height="26" as="geometry" />
        </mxCell>
        <mxCell id="y01pH325L1v8heinwYg4-1" value="+realizarLiqDeSueldos():" style="text;strokeColor=none;fillColor=none;align=left;verticalAlign=top;spacingLeft=4;spacingRight=4;overflow=hidden;rotatable=0;points=[[0,0.5],[1,0.5]];portConstraint=eastwest;whiteSpace=wrap;html=1;" vertex="1" parent="zkfFHV4jXpPFQw0GAbJ--0">
          <mxGeometry y="182" width="270" height="26" as="geometry" />
        </mxCell>
        <mxCell id="y01pH325L1v8heinwYg4-3" value="+montoBrutoSueldos(): Int" style="text;strokeColor=none;fillColor=none;align=left;verticalAlign=top;spacingLeft=4;spacingRight=4;overflow=hidden;rotatable=0;points=[[0,0.5],[1,0.5]];portConstraint=eastwest;whiteSpace=wrap;html=1;" vertex="1" parent="zkfFHV4jXpPFQw0GAbJ--0">
          <mxGeometry y="208" width="270" height="26" as="geometry" />
        </mxCell>
        <mxCell id="kqf3sXOYV44oBNvx0RqA-0" value="+ getRecibosEmitidos: List&amp;lt;ReciboDeHaberes&amp;gt;" style="text;strokeColor=none;fillColor=none;align=left;verticalAlign=top;spacingLeft=4;spacingRight=4;overflow=hidden;rotatable=0;points=[[0,0.5],[1,0.5]];portConstraint=eastwest;whiteSpace=wrap;html=1;" vertex="1" parent="zkfFHV4jXpPFQw0GAbJ--0">
          <mxGeometry y="234" width="270" height="32" as="geometry" />
        </mxCell>
        <mxCell id="12OXvtKY0zb774qE7lxM-0" value="&lt;span style=&quot;font-weight: normal;&quot;&gt;Empleado&lt;/span&gt;" style="swimlane;fontStyle=1;align=center;verticalAlign=top;childLayout=stackLayout;horizontal=1;startSize=26;horizontalStack=0;resizeParent=1;resizeParentMax=0;resizeLast=0;collapsible=1;marginBottom=0;whiteSpace=wrap;html=1;" vertex="1" parent="WIyWlLk6GJQsqaUBKTNV-1">
          <mxGeometry x="600" y="50" width="230" height="360" as="geometry" />
        </mxCell>
        <mxCell id="12OXvtKY0zb774qE7lxM-2" value="" style="line;strokeWidth=1;fillColor=none;align=left;verticalAlign=middle;spacingTop=-1;spacingLeft=3;spacingRight=3;rotatable=0;labelPosition=right;points=[];portConstraint=eastwest;strokeColor=inherit;" vertex="1" parent="12OXvtKY0zb774qE7lxM-0">
          <mxGeometry y="26" width="230" height="8" as="geometry" />
        </mxCell>
        <mxCell id="_xuZ75seb5IjwTtY9JxN-5" value="- nombre: String&lt;br&gt;" style="text;strokeColor=none;fillColor=none;align=left;verticalAlign=top;spacingLeft=4;spacingRight=4;overflow=hidden;rotatable=0;points=[[0,0.5],[1,0.5]];portConstraint=eastwest;whiteSpace=wrap;html=1;" vertex="1" parent="12OXvtKY0zb774qE7lxM-0">
          <mxGeometry y="34" width="230" height="26" as="geometry" />
        </mxCell>
        <mxCell id="12OXvtKY0zb774qE7lxM-30" value="- direccion: String" style="text;strokeColor=none;fillColor=none;align=left;verticalAlign=top;spacingLeft=4;spacingRight=4;overflow=hidden;rotatable=0;points=[[0,0.5],[1,0.5]];portConstraint=eastwest;whiteSpace=wrap;html=1;" vertex="1" parent="12OXvtKY0zb774qE7lxM-0">
          <mxGeometry y="60" width="230" height="26" as="geometry" />
        </mxCell>
        <mxCell id="12OXvtKY0zb774qE7lxM-33" value="- sueldoBasico: Int" style="text;strokeColor=none;fillColor=none;align=left;verticalAlign=top;spacingLeft=4;spacingRight=4;overflow=hidden;rotatable=0;points=[[0,0.5],[1,0.5]];portConstraint=eastwest;whiteSpace=wrap;html=1;" vertex="1" parent="12OXvtKY0zb774qE7lxM-0">
          <mxGeometry y="86" width="230" height="26" as="geometry" />
        </mxCell>
        <mxCell id="12OXvtKY0zb774qE7lxM-43" value="- fechaDeNacimiento: LocalDate" style="text;strokeColor=none;fillColor=none;align=left;verticalAlign=top;spacingLeft=4;spacingRight=4;overflow=hidden;rotatable=0;points=[[0,0.5],[1,0.5]];portConstraint=eastwest;whiteSpace=wrap;html=1;" vertex="1" parent="12OXvtKY0zb774qE7lxM-0">
          <mxGeometry y="112" width="230" height="26" as="geometry" />
        </mxCell>
        <mxCell id="12OXvtKY0zb774qE7lxM-29" value="" style="line;strokeWidth=1;fillColor=none;align=left;verticalAlign=middle;spacingTop=-1;spacingLeft=3;spacingRight=3;rotatable=0;labelPosition=right;points=[];portConstraint=eastwest;strokeColor=inherit;" vertex="1" parent="12OXvtKY0zb774qE7lxM-0">
          <mxGeometry y="138" width="230" height="8" as="geometry" />
        </mxCell>
        <mxCell id="12OXvtKY0zb774qE7lxM-3" value="+ edad() : Int&lt;br&gt;&amp;nbsp;" style="text;strokeColor=none;fillColor=none;align=left;verticalAlign=top;spacingLeft=4;spacingRight=4;overflow=hidden;rotatable=0;points=[[0,0.5],[1,0.5]];portConstraint=eastwest;whiteSpace=wrap;html=1;" vertex="1" parent="12OXvtKY0zb774qE7lxM-0">
          <mxGeometry y="146" width="230" height="28" as="geometry" />
        </mxCell>
        <mxCell id="kqf3sXOYV44oBNvx0RqA-33" value="+ getEstadoCivil(): EstadoCivil" style="text;strokeColor=none;fillColor=none;align=left;verticalAlign=top;spacingLeft=4;spacingRight=4;overflow=hidden;rotatable=0;points=[[0,0.5],[1,0.5]];portConstraint=eastwest;whiteSpace=wrap;html=1;" vertex="1" parent="12OXvtKY0zb774qE7lxM-0">
          <mxGeometry y="174" width="230" height="26" as="geometry" />
        </mxCell>
        <mxCell id="y01pH325L1v8heinwYg4-17" value="+ getNombre(): String" style="text;strokeColor=none;fillColor=none;align=left;verticalAlign=top;spacingLeft=4;spacingRight=4;overflow=hidden;rotatable=0;points=[[0,0.5],[1,0.5]];portConstraint=eastwest;whiteSpace=wrap;html=1;" vertex="1" parent="12OXvtKY0zb774qE7lxM-0">
          <mxGeometry y="200" width="230" height="26" as="geometry" />
        </mxCell>
        <mxCell id="y01pH325L1v8heinwYg4-18" value="+ getDireccion: String" style="text;strokeColor=none;fillColor=none;align=left;verticalAlign=top;spacingLeft=4;spacingRight=4;overflow=hidden;rotatable=0;points=[[0,0.5],[1,0.5]];portConstraint=eastwest;whiteSpace=wrap;html=1;" vertex="1" parent="12OXvtKY0zb774qE7lxM-0">
          <mxGeometry y="226" width="230" height="26" as="geometry" />
        </mxCell>
        <mxCell id="12OXvtKY0zb774qE7lxM-42" value="+ sueldoNeto(): Int" style="text;strokeColor=none;fillColor=none;align=left;verticalAlign=top;spacingLeft=4;spacingRight=4;overflow=hidden;rotatable=0;points=[[0,0.5],[1,0.5]];portConstraint=eastwest;whiteSpace=wrap;html=1;" vertex="1" parent="12OXvtKY0zb774qE7lxM-0">
          <mxGeometry y="252" width="230" height="26" as="geometry" />
        </mxCell>
        <mxCell id="12OXvtKY0zb774qE7lxM-41" value="+ retenciones(): Int" style="text;strokeColor=none;fillColor=none;align=left;verticalAlign=top;spacingLeft=4;spacingRight=4;overflow=hidden;rotatable=0;points=[[0,0.5],[1,0.5]];portConstraint=eastwest;whiteSpace=wrap;html=1;" vertex="1" parent="12OXvtKY0zb774qE7lxM-0">
          <mxGeometry y="278" width="230" height="26" as="geometry" />
        </mxCell>
        <mxCell id="12OXvtKY0zb774qE7lxM-40" value="&lt;i&gt;+ sueldoBruto(): Int&lt;/i&gt;" style="text;strokeColor=none;fillColor=none;align=left;verticalAlign=top;spacingLeft=4;spacingRight=4;overflow=hidden;rotatable=0;points=[[0,0.5],[1,0.5]];portConstraint=eastwest;whiteSpace=wrap;html=1;" vertex="1" parent="12OXvtKY0zb774qE7lxM-0">
          <mxGeometry y="304" width="230" height="26" as="geometry" />
        </mxCell>
        <mxCell id="y01pH325L1v8heinwYg4-12" value="&lt;i&gt;+ desgloceDeSueldos(): List&amp;lt;Concepto&amp;gt;&lt;br&gt;&lt;br&gt;&lt;/i&gt;" style="text;strokeColor=none;fillColor=none;align=left;verticalAlign=top;spacingLeft=4;spacingRight=4;overflow=hidden;rotatable=0;points=[[0,0.5],[1,0.5]];portConstraint=eastwest;whiteSpace=wrap;html=1;" vertex="1" parent="12OXvtKY0zb774qE7lxM-0">
          <mxGeometry y="330" width="230" height="30" as="geometry" />
        </mxCell>
        <mxCell id="12OXvtKY0zb774qE7lxM-4" value="empleados" style="endArrow=block;endFill=1;html=1;edgeStyle=orthogonalEdgeStyle;align=left;verticalAlign=top;rounded=0;entryX=-0.006;entryY=0.063;entryDx=0;entryDy=0;exitX=1;exitY=0.5;exitDx=0;exitDy=0;entryPerimeter=0;" edge="1" parent="WIyWlLk6GJQsqaUBKTNV-1" source="zkfFHV4jXpPFQw0GAbJ--1" target="12OXvtKY0zb774qE7lxM-0">
          <mxGeometry x="-1" relative="1" as="geometry">
            <mxPoint x="369.75" y="87.27" as="sourcePoint" />
            <mxPoint x="549.75" y="104.00400000000003" as="targetPoint" />
          </mxGeometry>
        </mxCell>
        <mxCell id="12OXvtKY0zb774qE7lxM-8" value="EmpleadoPermanente" style="swimlane;fontStyle=1;align=center;verticalAlign=top;childLayout=stackLayout;horizontal=1;startSize=26;horizontalStack=0;resizeParent=1;resizeParentMax=0;resizeLast=0;collapsible=1;marginBottom=0;whiteSpace=wrap;html=1;" vertex="1" parent="WIyWlLk6GJQsqaUBKTNV-1">
          <mxGeometry x="350" y="540" width="230" height="186" as="geometry" />
        </mxCell>
        <mxCell id="12OXvtKY0zb774qE7lxM-39" value="- antiguedad: Int" style="text;strokeColor=none;fillColor=none;align=left;verticalAlign=top;spacingLeft=4;spacingRight=4;overflow=hidden;rotatable=0;points=[[0,0.5],[1,0.5]];portConstraint=eastwest;whiteSpace=wrap;html=1;" vertex="1" parent="12OXvtKY0zb774qE7lxM-8">
          <mxGeometry y="26" width="230" height="26" as="geometry" />
        </mxCell>
        <mxCell id="12OXvtKY0zb774qE7lxM-9" value="- cantidadDeHijos: Int" style="text;strokeColor=none;fillColor=none;align=left;verticalAlign=top;spacingLeft=4;spacingRight=4;overflow=hidden;rotatable=0;points=[[0,0.5],[1,0.5]];portConstraint=eastwest;whiteSpace=wrap;html=1;" vertex="1" parent="12OXvtKY0zb774qE7lxM-8">
          <mxGeometry y="52" width="230" height="24" as="geometry" />
        </mxCell>
        <mxCell id="12OXvtKY0zb774qE7lxM-10" value="" style="line;strokeWidth=1;fillColor=none;align=left;verticalAlign=middle;spacingTop=-1;spacingLeft=3;spacingRight=3;rotatable=0;labelPosition=right;points=[];portConstraint=eastwest;strokeColor=inherit;" vertex="1" parent="12OXvtKY0zb774qE7lxM-8">
          <mxGeometry y="76" width="230" height="8" as="geometry" />
        </mxCell>
        <mxCell id="kqf3sXOYV44oBNvx0RqA-17" value="&lt;u&gt;+ new (String, String, EstadoCivil, LocalDate, int, int, int)&lt;/u&gt;" style="text;strokeColor=none;fillColor=none;align=left;verticalAlign=top;spacingLeft=4;spacingRight=4;overflow=hidden;rotatable=0;points=[[0,0.5],[1,0.5]];portConstraint=eastwest;whiteSpace=wrap;html=1;" vertex="1" parent="12OXvtKY0zb774qE7lxM-8">
          <mxGeometry y="84" width="230" height="46" as="geometry" />
        </mxCell>
        <mxCell id="12OXvtKY0zb774qE7lxM-36" value="+ sueldoBruto(): Int" style="text;strokeColor=none;fillColor=none;align=left;verticalAlign=top;spacingLeft=4;spacingRight=4;overflow=hidden;rotatable=0;points=[[0,0.5],[1,0.5]];portConstraint=eastwest;whiteSpace=wrap;html=1;" vertex="1" parent="12OXvtKY0zb774qE7lxM-8">
          <mxGeometry y="130" width="230" height="26" as="geometry" />
        </mxCell>
        <mxCell id="y01pH325L1v8heinwYg4-8" value="+ desgloceDeSueldos(): List&amp;lt;Concepto&amp;gt;" style="text;strokeColor=none;fillColor=none;align=left;verticalAlign=top;spacingLeft=4;spacingRight=4;overflow=hidden;rotatable=0;points=[[0,0.5],[1,0.5]];portConstraint=eastwest;whiteSpace=wrap;html=1;" vertex="1" parent="12OXvtKY0zb774qE7lxM-8">
          <mxGeometry y="156" width="230" height="30" as="geometry" />
        </mxCell>
        <mxCell id="12OXvtKY0zb774qE7lxM-12" value="EmpleadoTemporal" style="swimlane;fontStyle=1;align=center;verticalAlign=top;childLayout=stackLayout;horizontal=1;startSize=26;horizontalStack=0;resizeParent=1;resizeParentMax=0;resizeLast=0;collapsible=1;marginBottom=0;whiteSpace=wrap;html=1;" vertex="1" parent="WIyWlLk6GJQsqaUBKTNV-1">
          <mxGeometry x="620" y="540" width="230" height="186" as="geometry" />
        </mxCell>
        <mxCell id="12OXvtKY0zb774qE7lxM-13" value="- finDeDesignacionPlanta: Fecha&lt;br&gt;" style="text;strokeColor=none;fillColor=none;align=left;verticalAlign=top;spacingLeft=4;spacingRight=4;overflow=hidden;rotatable=0;points=[[0,0.5],[1,0.5]];portConstraint=eastwest;whiteSpace=wrap;html=1;" vertex="1" parent="12OXvtKY0zb774qE7lxM-12">
          <mxGeometry y="26" width="230" height="24" as="geometry" />
        </mxCell>
        <mxCell id="12OXvtKY0zb774qE7lxM-38" value="- cantHorasExtra: Int" style="text;strokeColor=none;fillColor=none;align=left;verticalAlign=top;spacingLeft=4;spacingRight=4;overflow=hidden;rotatable=0;points=[[0,0.5],[1,0.5]];portConstraint=eastwest;whiteSpace=wrap;html=1;" vertex="1" parent="12OXvtKY0zb774qE7lxM-12">
          <mxGeometry y="50" width="230" height="26" as="geometry" />
        </mxCell>
        <mxCell id="12OXvtKY0zb774qE7lxM-14" value="" style="line;strokeWidth=1;fillColor=none;align=left;verticalAlign=middle;spacingTop=-1;spacingLeft=3;spacingRight=3;rotatable=0;labelPosition=right;points=[];portConstraint=eastwest;strokeColor=inherit;" vertex="1" parent="12OXvtKY0zb774qE7lxM-12">
          <mxGeometry y="76" width="230" height="8" as="geometry" />
        </mxCell>
        <mxCell id="kqf3sXOYV44oBNvx0RqA-18" value="&lt;u&gt;+ new (String, String, EstadoCivil, LocalDate, int, LocalDate, int)&lt;/u&gt;" style="text;strokeColor=none;fillColor=none;align=left;verticalAlign=top;spacingLeft=4;spacingRight=4;overflow=hidden;rotatable=0;points=[[0,0.5],[1,0.5]];portConstraint=eastwest;whiteSpace=wrap;html=1;" vertex="1" parent="12OXvtKY0zb774qE7lxM-12">
          <mxGeometry y="84" width="230" height="46" as="geometry" />
        </mxCell>
        <mxCell id="12OXvtKY0zb774qE7lxM-34" value="+ sueldoBruto(): Int" style="text;strokeColor=none;fillColor=none;align=left;verticalAlign=top;spacingLeft=4;spacingRight=4;overflow=hidden;rotatable=0;points=[[0,0.5],[1,0.5]];portConstraint=eastwest;whiteSpace=wrap;html=1;" vertex="1" parent="12OXvtKY0zb774qE7lxM-12">
          <mxGeometry y="130" width="230" height="26" as="geometry" />
        </mxCell>
        <mxCell id="y01pH325L1v8heinwYg4-9" value="+ desgloceDeSueldos(): List&amp;lt;Concepto&amp;gt;" style="text;strokeColor=none;fillColor=none;align=left;verticalAlign=top;spacingLeft=4;spacingRight=4;overflow=hidden;rotatable=0;points=[[0,0.5],[1,0.5]];portConstraint=eastwest;whiteSpace=wrap;html=1;" vertex="1" parent="12OXvtKY0zb774qE7lxM-12">
          <mxGeometry y="156" width="230" height="30" as="geometry" />
        </mxCell>
        <mxCell id="12OXvtKY0zb774qE7lxM-19" value="ReciboDeHaberes" style="swimlane;fontStyle=0;childLayout=stackLayout;horizontal=1;startSize=26;fillColor=none;horizontalStack=0;resizeParent=1;resizeParentMax=0;resizeLast=0;collapsible=1;marginBottom=0;whiteSpace=wrap;html=1;" vertex="1" parent="WIyWlLk6GJQsqaUBKTNV-1">
          <mxGeometry x="10" y="163" width="180" height="160" as="geometry" />
        </mxCell>
        <mxCell id="12OXvtKY0zb774qE7lxM-20" value="- nombreEmpleado: String" style="text;strokeColor=none;fillColor=none;align=left;verticalAlign=top;spacingLeft=4;spacingRight=4;overflow=hidden;rotatable=0;points=[[0,0.5],[1,0.5]];portConstraint=eastwest;whiteSpace=wrap;html=1;" vertex="1" parent="12OXvtKY0zb774qE7lxM-19">
          <mxGeometry y="26" width="180" height="26" as="geometry" />
        </mxCell>
        <mxCell id="12OXvtKY0zb774qE7lxM-21" value="- direccion: String" style="text;strokeColor=none;fillColor=none;align=left;verticalAlign=top;spacingLeft=4;spacingRight=4;overflow=hidden;rotatable=0;points=[[0,0.5],[1,0.5]];portConstraint=eastwest;whiteSpace=wrap;html=1;" vertex="1" parent="12OXvtKY0zb774qE7lxM-19">
          <mxGeometry y="52" width="180" height="26" as="geometry" />
        </mxCell>
        <mxCell id="12OXvtKY0zb774qE7lxM-23" value="- fechaDeEmision: LocalDate" style="text;strokeColor=none;fillColor=none;align=left;verticalAlign=top;spacingLeft=4;spacingRight=4;overflow=hidden;rotatable=0;points=[[0,0.5],[1,0.5]];portConstraint=eastwest;whiteSpace=wrap;html=1;" vertex="1" parent="12OXvtKY0zb774qE7lxM-19">
          <mxGeometry y="78" width="180" height="26" as="geometry" />
        </mxCell>
        <mxCell id="12OXvtKY0zb774qE7lxM-24" value="-sueldoNeto: Int&lt;br&gt;" style="text;strokeColor=none;fillColor=none;align=left;verticalAlign=top;spacingLeft=4;spacingRight=4;overflow=hidden;rotatable=0;points=[[0,0.5],[1,0.5]];portConstraint=eastwest;whiteSpace=wrap;html=1;" vertex="1" parent="12OXvtKY0zb774qE7lxM-19">
          <mxGeometry y="104" width="180" height="26" as="geometry" />
        </mxCell>
        <mxCell id="12OXvtKY0zb774qE7lxM-22" value="- sueldoBruto: Int" style="text;strokeColor=none;fillColor=none;align=left;verticalAlign=top;spacingLeft=4;spacingRight=4;overflow=hidden;rotatable=0;points=[[0,0.5],[1,0.5]];portConstraint=eastwest;whiteSpace=wrap;html=1;" vertex="1" parent="12OXvtKY0zb774qE7lxM-19">
          <mxGeometry y="130" width="180" height="30" as="geometry" />
        </mxCell>
        <mxCell id="y01pH325L1v8heinwYg4-4" value="EmpleadoContratado" style="swimlane;fontStyle=1;align=center;verticalAlign=top;childLayout=stackLayout;horizontal=1;startSize=26;horizontalStack=0;resizeParent=1;resizeParentMax=0;resizeLast=0;collapsible=1;marginBottom=0;whiteSpace=wrap;html=1;" vertex="1" parent="WIyWlLk6GJQsqaUBKTNV-1">
          <mxGeometry x="50" y="540" width="250" height="186" as="geometry" />
        </mxCell>
        <mxCell id="y01pH325L1v8heinwYg4-5" value="- numeroDeContrato: Int&lt;br&gt;" style="text;strokeColor=none;fillColor=none;align=left;verticalAlign=top;spacingLeft=4;spacingRight=4;overflow=hidden;rotatable=0;points=[[0,0.5],[1,0.5]];portConstraint=eastwest;whiteSpace=wrap;html=1;" vertex="1" parent="y01pH325L1v8heinwYg4-4">
          <mxGeometry y="26" width="250" height="26" as="geometry" />
        </mxCell>
        <mxCell id="y01pH325L1v8heinwYg4-11" value="- medioDePago: String" style="text;strokeColor=none;fillColor=none;align=left;verticalAlign=top;spacingLeft=4;spacingRight=4;overflow=hidden;rotatable=0;points=[[0,0.5],[1,0.5]];portConstraint=eastwest;whiteSpace=wrap;html=1;" vertex="1" parent="y01pH325L1v8heinwYg4-4">
          <mxGeometry y="52" width="250" height="24" as="geometry" />
        </mxCell>
        <mxCell id="y01pH325L1v8heinwYg4-6" value="" style="line;strokeWidth=1;fillColor=none;align=left;verticalAlign=middle;spacingTop=-1;spacingLeft=3;spacingRight=3;rotatable=0;labelPosition=right;points=[];portConstraint=eastwest;strokeColor=inherit;" vertex="1" parent="y01pH325L1v8heinwYg4-4">
          <mxGeometry y="76" width="250" height="8" as="geometry" />
        </mxCell>
        <mxCell id="kqf3sXOYV44oBNvx0RqA-15" value="&lt;u&gt;+ new (String, String, EstadoCivil, LocalDate, int, int, String)&lt;/u&gt;" style="text;strokeColor=none;fillColor=none;align=left;verticalAlign=top;spacingLeft=4;spacingRight=4;overflow=hidden;rotatable=0;points=[[0,0.5],[1,0.5]];portConstraint=eastwest;whiteSpace=wrap;html=1;" vertex="1" parent="y01pH325L1v8heinwYg4-4">
          <mxGeometry y="84" width="250" height="46" as="geometry" />
        </mxCell>
        <mxCell id="y01pH325L1v8heinwYg4-7" value="+ sueldoBruto(): Int" style="text;strokeColor=none;fillColor=none;align=left;verticalAlign=top;spacingLeft=4;spacingRight=4;overflow=hidden;rotatable=0;points=[[0,0.5],[1,0.5]];portConstraint=eastwest;whiteSpace=wrap;html=1;" vertex="1" parent="y01pH325L1v8heinwYg4-4">
          <mxGeometry y="130" width="250" height="26" as="geometry" />
        </mxCell>
        <mxCell id="y01pH325L1v8heinwYg4-10" value="+ desgloceDeSueldos(): List&amp;lt;Concepto&amp;gt;" style="text;strokeColor=none;fillColor=none;align=left;verticalAlign=top;spacingLeft=4;spacingRight=4;overflow=hidden;rotatable=0;points=[[0,0.5],[1,0.5]];portConstraint=eastwest;whiteSpace=wrap;html=1;" vertex="1" parent="y01pH325L1v8heinwYg4-4">
          <mxGeometry y="156" width="250" height="30" as="geometry" />
        </mxCell>
        <mxCell id="y01pH325L1v8heinwYg4-13" value="Extends" style="endArrow=block;endSize=16;endFill=0;html=1;rounded=0;exitX=0.55;exitY=-0.021;exitDx=0;exitDy=0;exitPerimeter=0;entryX=-0.017;entryY=-0.071;entryDx=0;entryDy=0;entryPerimeter=0;" edge="1" parent="WIyWlLk6GJQsqaUBKTNV-1" source="y01pH325L1v8heinwYg4-4" target="12OXvtKY0zb774qE7lxM-3">
          <mxGeometry x="-0.0072" y="3" width="160" relative="1" as="geometry">
            <mxPoint x="330" y="390" as="sourcePoint" />
            <mxPoint x="640" y="450" as="targetPoint" />
            <mxPoint as="offset" />
          </mxGeometry>
        </mxCell>
        <mxCell id="y01pH325L1v8heinwYg4-14" value="Extends" style="endArrow=block;endSize=16;endFill=0;html=1;rounded=0;exitX=0.5;exitY=0;exitDx=0;exitDy=0;entryX=0;entryY=0.5;entryDx=0;entryDy=0;" edge="1" parent="WIyWlLk6GJQsqaUBKTNV-1" source="12OXvtKY0zb774qE7lxM-8" target="12OXvtKY0zb774qE7lxM-41">
          <mxGeometry width="160" relative="1" as="geometry">
            <mxPoint x="330" y="390" as="sourcePoint" />
            <mxPoint x="640" y="450" as="targetPoint" />
          </mxGeometry>
        </mxCell>
        <mxCell id="y01pH325L1v8heinwYg4-15" value="Extends" style="endArrow=block;endSize=16;endFill=0;html=1;rounded=0;exitX=0.5;exitY=0;exitDx=0;exitDy=0;entryX=1;entryY=0.5;entryDx=0;entryDy=0;" edge="1" parent="WIyWlLk6GJQsqaUBKTNV-1" source="12OXvtKY0zb774qE7lxM-12" target="12OXvtKY0zb774qE7lxM-41">
          <mxGeometry width="160" relative="1" as="geometry">
            <mxPoint x="330" y="390" as="sourcePoint" />
            <mxPoint x="490" y="390" as="targetPoint" />
          </mxGeometry>
        </mxCell>
        <mxCell id="_xuZ75seb5IjwTtY9JxN-0" value="" style="endArrow=block;endFill=1;html=1;edgeStyle=orthogonalEdgeStyle;align=left;verticalAlign=top;rounded=0;exitX=0;exitY=0.5;exitDx=0;exitDy=0;entryX=0.378;entryY=0.013;entryDx=0;entryDy=0;entryPerimeter=0;" edge="1" parent="WIyWlLk6GJQsqaUBKTNV-1" source="zkfFHV4jXpPFQw0GAbJ--1" target="12OXvtKY0zb774qE7lxM-19">
          <mxGeometry x="-1" relative="1" as="geometry">
            <mxPoint x="330" y="390" as="sourcePoint" />
            <mxPoint x="490" y="390" as="targetPoint" />
          </mxGeometry>
        </mxCell>
        <mxCell id="_xuZ75seb5IjwTtY9JxN-2" value="recibosEmitidos" style="edgeLabel;html=1;align=center;verticalAlign=middle;resizable=0;points=[];" connectable="0" vertex="1" parent="_xuZ75seb5IjwTtY9JxN-0">
          <mxGeometry x="-0.7247" relative="1" as="geometry">
            <mxPoint x="-11" y="-15" as="offset" />
          </mxGeometry>
        </mxCell>
        <mxCell id="_xuZ75seb5IjwTtY9JxN-3" value="*" style="edgeLabel;html=1;align=center;verticalAlign=middle;resizable=0;points=[];" connectable="0" vertex="1" parent="_xuZ75seb5IjwTtY9JxN-0">
          <mxGeometry x="0.9009" y="-1" relative="1" as="geometry">
            <mxPoint x="-7" as="offset" />
          </mxGeometry>
        </mxCell>
        <mxCell id="_xuZ75seb5IjwTtY9JxN-6" value="*" style="edgeLabel;html=1;align=center;verticalAlign=middle;resizable=0;points=[];" connectable="0" vertex="1" parent="WIyWlLk6GJQsqaUBKTNV-1">
          <mxGeometry x="79.9965788212971" y="400.0001760284349" as="geometry">
            <mxPoint x="433" y="-323" as="offset" />
          </mxGeometry>
        </mxCell>
        <mxCell id="kqf3sXOYV44oBNvx0RqA-1" value="Concepto" style="swimlane;fontStyle=0;childLayout=stackLayout;horizontal=1;startSize=26;fillColor=none;horizontalStack=0;resizeParent=1;resizeParentMax=0;resizeLast=0;collapsible=1;marginBottom=0;whiteSpace=wrap;html=1;" vertex="1" parent="WIyWlLk6GJQsqaUBKTNV-1">
          <mxGeometry x="30" y="370" width="140" height="104" as="geometry" />
        </mxCell>
        <mxCell id="kqf3sXOYV44oBNvx0RqA-2" value="&lt;u&gt;+ new (String, int)&lt;/u&gt;" style="text;strokeColor=none;fillColor=none;align=left;verticalAlign=top;spacingLeft=4;spacingRight=4;overflow=hidden;rotatable=0;points=[[0,0.5],[1,0.5]];portConstraint=eastwest;whiteSpace=wrap;html=1;" vertex="1" parent="kqf3sXOYV44oBNvx0RqA-1">
          <mxGeometry y="26" width="140" height="26" as="geometry" />
        </mxCell>
        <mxCell id="kqf3sXOYV44oBNvx0RqA-4" value="+ getNombre(): String&lt;br&gt;" style="text;strokeColor=none;fillColor=none;align=left;verticalAlign=top;spacingLeft=4;spacingRight=4;overflow=hidden;rotatable=0;points=[[0,0.5],[1,0.5]];portConstraint=eastwest;whiteSpace=wrap;html=1;" vertex="1" parent="kqf3sXOYV44oBNvx0RqA-1">
          <mxGeometry y="52" width="140" height="26" as="geometry" />
        </mxCell>
        <mxCell id="kqf3sXOYV44oBNvx0RqA-5" value="+ getValor(): int&lt;br&gt;" style="text;strokeColor=none;fillColor=none;align=left;verticalAlign=top;spacingLeft=4;spacingRight=4;overflow=hidden;rotatable=0;points=[[0,0.5],[1,0.5]];portConstraint=eastwest;whiteSpace=wrap;html=1;" vertex="1" parent="kqf3sXOYV44oBNvx0RqA-1">
          <mxGeometry y="78" width="140" height="26" as="geometry" />
        </mxCell>
        <mxCell id="kqf3sXOYV44oBNvx0RqA-12" value="desgloceDeConceptos" style="endArrow=block;endFill=1;html=1;edgeStyle=orthogonalEdgeStyle;align=left;verticalAlign=top;rounded=0;exitX=1;exitY=0.5;exitDx=0;exitDy=0;entryX=1;entryY=-0.077;entryDx=0;entryDy=0;entryPerimeter=0;" edge="1" parent="WIyWlLk6GJQsqaUBKTNV-1" source="12OXvtKY0zb774qE7lxM-22" target="kqf3sXOYV44oBNvx0RqA-4">
          <mxGeometry x="-1" relative="1" as="geometry">
            <mxPoint x="180" y="360" as="sourcePoint" />
            <mxPoint x="340" y="360" as="targetPoint" />
          </mxGeometry>
        </mxCell>
        <mxCell id="kqf3sXOYV44oBNvx0RqA-13" value="*" style="edgeLabel;resizable=0;html=1;align=left;verticalAlign=bottom;" connectable="0" vertex="1" parent="kqf3sXOYV44oBNvx0RqA-12">
          <mxGeometry x="-1" relative="1" as="geometry">
            <mxPoint x="-10" y="128" as="offset" />
          </mxGeometry>
        </mxCell>
        <mxCell id="kqf3sXOYV44oBNvx0RqA-19" value="EstadoCivil" style="swimlane;fontStyle=0;childLayout=stackLayout;horizontal=1;startSize=26;fillColor=none;horizontalStack=0;resizeParent=1;resizeParentMax=0;resizeLast=0;collapsible=1;marginBottom=0;whiteSpace=wrap;html=1;" vertex="1" parent="WIyWlLk6GJQsqaUBKTNV-1">
          <mxGeometry x="970" y="50" width="140" height="52" as="geometry" />
        </mxCell>
        <mxCell id="kqf3sXOYV44oBNvx0RqA-20" value="&lt;i&gt;+ bonusPorEstado: Int&lt;/i&gt;" style="text;strokeColor=none;fillColor=none;align=left;verticalAlign=top;spacingLeft=4;spacingRight=4;overflow=hidden;rotatable=0;points=[[0,0.5],[1,0.5]];portConstraint=eastwest;whiteSpace=wrap;html=1;" vertex="1" parent="kqf3sXOYV44oBNvx0RqA-19">
          <mxGeometry y="26" width="140" height="26" as="geometry" />
        </mxCell>
        <mxCell id="kqf3sXOYV44oBNvx0RqA-23" value="Casado" style="swimlane;fontStyle=0;childLayout=stackLayout;horizontal=1;startSize=26;fillColor=none;horizontalStack=0;resizeParent=1;resizeParentMax=0;resizeLast=0;collapsible=1;marginBottom=0;whiteSpace=wrap;html=1;" vertex="1" parent="WIyWlLk6GJQsqaUBKTNV-1">
          <mxGeometry x="880" y="170" width="140" height="52" as="geometry" />
        </mxCell>
        <mxCell id="kqf3sXOYV44oBNvx0RqA-24" value="+ bonusPorEstado(): Int" style="text;strokeColor=none;fillColor=none;align=left;verticalAlign=top;spacingLeft=4;spacingRight=4;overflow=hidden;rotatable=0;points=[[0,0.5],[1,0.5]];portConstraint=eastwest;whiteSpace=wrap;html=1;" vertex="1" parent="kqf3sXOYV44oBNvx0RqA-23">
          <mxGeometry y="26" width="140" height="26" as="geometry" />
        </mxCell>
        <mxCell id="kqf3sXOYV44oBNvx0RqA-27" value="Soltero" style="swimlane;fontStyle=0;childLayout=stackLayout;horizontal=1;startSize=26;fillColor=none;horizontalStack=0;resizeParent=1;resizeParentMax=0;resizeLast=0;collapsible=1;marginBottom=0;whiteSpace=wrap;html=1;" vertex="1" parent="WIyWlLk6GJQsqaUBKTNV-1">
          <mxGeometry x="1060" y="170" width="140" height="52" as="geometry" />
        </mxCell>
        <mxCell id="kqf3sXOYV44oBNvx0RqA-28" value="+ bonusPorEstado(): Int" style="text;strokeColor=none;fillColor=none;align=left;verticalAlign=top;spacingLeft=4;spacingRight=4;overflow=hidden;rotatable=0;points=[[0,0.5],[1,0.5]];portConstraint=eastwest;whiteSpace=wrap;html=1;" vertex="1" parent="kqf3sXOYV44oBNvx0RqA-27">
          <mxGeometry y="26" width="140" height="26" as="geometry" />
        </mxCell>
        <mxCell id="kqf3sXOYV44oBNvx0RqA-29" value="Extends" style="endArrow=block;endSize=16;endFill=0;html=1;rounded=0;exitX=0.5;exitY=0;exitDx=0;exitDy=0;" edge="1" parent="WIyWlLk6GJQsqaUBKTNV-1" source="kqf3sXOYV44oBNvx0RqA-23" target="kqf3sXOYV44oBNvx0RqA-19">
          <mxGeometry width="160" relative="1" as="geometry">
            <mxPoint x="900" y="300" as="sourcePoint" />
            <mxPoint x="1060" y="300" as="targetPoint" />
          </mxGeometry>
        </mxCell>
        <mxCell id="kqf3sXOYV44oBNvx0RqA-30" value="Extends" style="endArrow=block;endSize=16;endFill=0;html=1;rounded=0;exitX=0.629;exitY=0;exitDx=0;exitDy=0;exitPerimeter=0;" edge="1" parent="WIyWlLk6GJQsqaUBKTNV-1" source="kqf3sXOYV44oBNvx0RqA-27" target="kqf3sXOYV44oBNvx0RqA-19">
          <mxGeometry width="160" relative="1" as="geometry">
            <mxPoint x="900" y="300" as="sourcePoint" />
            <mxPoint x="1060" y="300" as="targetPoint" />
          </mxGeometry>
        </mxCell>
        <mxCell id="kqf3sXOYV44oBNvx0RqA-31" value="estadoCivil" style="endArrow=block;endFill=1;html=1;edgeStyle=orthogonalEdgeStyle;align=left;verticalAlign=top;rounded=0;exitX=1;exitY=0.5;exitDx=0;exitDy=0;entryX=0;entryY=0.25;entryDx=0;entryDy=0;" edge="1" parent="WIyWlLk6GJQsqaUBKTNV-1" source="_xuZ75seb5IjwTtY9JxN-5" target="kqf3sXOYV44oBNvx0RqA-19">
          <mxGeometry x="-1" relative="1" as="geometry">
            <mxPoint x="900" y="300" as="sourcePoint" />
            <mxPoint x="1060" y="300" as="targetPoint" />
          </mxGeometry>
        </mxCell>
        <mxCell id="kqf3sXOYV44oBNvx0RqA-32" value="1" style="edgeLabel;resizable=0;html=1;align=left;verticalAlign=bottom;" connectable="0" vertex="1" parent="kqf3sXOYV44oBNvx0RqA-31">
          <mxGeometry x="-1" relative="1" as="geometry" />
        </mxCell>
      </root>
    </mxGraphModel>
  </diagram>
</mxfile>
